<?xml version="1.0" encoding="UTF-8"?>
<svg width="346px" height="346px" viewBox="0 0 346 346" version="1.1" xmlns="http://www.w3.org/2000/svg" xmlns:xlink="http://www.w3.org/1999/xlink">
    <title>wookies_logo_final_white</title>
    <g id="Page-1" stroke="none" stroke-width="1" fill="none" fill-rule="evenodd">
        <g id="wookies_logo_final_white" transform="translate(3.000000, 3.000000)">
            <circle id="Oval" stroke="#FFFFFF" stroke-width="6" cx="169.8" cy="169.7" r="169.7"></circle>
            <path d="M153.7,210.3 L168.2,207.7 L179.5,195.9 L209.6,181.9 L217.1,174.1 L229.3,172.2 L265.5,162.3 L273.2,153.4 L278.9,153.4 C278.8,152.5 278.6,151.5 278.5,150.6 L274.2,151.4 L263.9,153.4 C263.9,153.5 263.8,153.5 263.7,153.5 L263.3,153.5 L215.4,162.7 L215.2,162.7 L213,163.2 L209.2,163.9 L167,171.8 L152.7,211.4 L153.7,210.3 Z M215.7,161.1 L262.7,152.1 C262.3,147.7 261.8,143.7 261.2,139.8 C260.512283,135.557301 259.61114,131.351965 258.5,127.2 C257.4,122.8 256.1,118.6 254.7,114.6 L253.8,112.3 L247.4,113.4 C247.4,113.4 212.9,130.5 206.7,135.4 L207.5,137.1 C209.1,140.9 210.6,144.9 212,149.1 C213.3,152.9 214.5,156.9 215.7,161.1 Z M241,84.4 C242.3,86.2 243.5,88.2 244.7,90.2 C246.965135,93.9915504 249.034514,97.8966696 250.9,101.9 C251.683405,103.4622 252.384367,105.064399 253,106.7 L260,105.5 C254.557779,97.7126323 248.176321,90.6258551 241,84.4 L241,84.4 Z M162.4,71.8 C165.7,74.9 168.8,78.2 171.7,81.3 C174.6,84.4 178,88.5 180.3,91.3 L182,93.5 L187,90.5 L220.8,73.9 L224.5,72.5 C207.101335,62.1736219 187.232276,56.7485047 167,56.7996368 C159.275779,56.7969957 151.570671,57.5675065 144,59.1 C146.863931,60.3486581 149.608537,61.8548447 152.2,63.6 C155.815612,66.0537356 159.226743,68.7960176 162.4,71.8 L162.4,71.8 Z M184.9,97.3 C186,98.7 187,100.2 188.1,101.7 C191,106 193.3,109.5 195.3,112.9 C197.3,116.3 199.9,120.9 201.8,124.9 C202.5,126.1 203.1,127.5 203.8,128.9 C214.1,122.4 241.7,108.8 241.7,108.8 L251.6,107 C251,105.5 250.4,103.9 249.7,102.5 C247.8,98.4 245.7,94.5 243.6,90.9 C241.478084,87.3360141 239.105435,83.9274189 236.5,80.7 L232.6,77.8 L233.4,77.1 L233.4,77.1 L234.5,76.3 L234.5,76.3 L251.5,64.1 L234.1,70.7 L230.7,72.3 L229.4,73 L229.4,73 L227.2,74.1 L200.1,87.7 L184.9,97.3 Z M256,114.2 C257.4,118.2 258.7,122.4 259.9,126.9 C261.1,131.4 261.9,135.3 262.6,139.6 C263.3,143.9 263.7,147.5 264.1,151.9 L274,150 L278.2,149.1 C276.810998,141.494153 274.632548,134.053908 271.7,126.9 L276.5,125.5 L286.1,114.8 L310.1,99.4 L282.2,103.6 L268.9,109.6 L263.3,110.6 L255.1,112 L256,114.2 Z M125.7,145.6 C123,148.7 120.2,152.1 117.5,155.7 C114.8,159.3 112,163.3 109.8,166.8 C107.6,170.3 105.1,174.5 103.1,178.2 C101.1,181.9 98.9,186.3 97.1,190.3 C95.3,194.3 93.8,198.2 92.1,202.7 C90.4,207.2 89.1,211 87.9,214.9 C86.7,218.8 86.2,220.9 85.6,223.6 L106.4,201.2 L121,184.7 L129.8,181.4 L152.3,160.5 L157.8,161.1 L135.9,134.9 L134.8,136 C132,138.7 129.2,141.7 125.7,145.6 Z M184.5,138.5 C184.5,138.5 198.6,134.8 200,131.8 C200.2,131.3 201.1,130.6 202.6,129.6 C201.9,128.2 201.3,126.8 200.6,125.5 C198.6,121.6 196.4,117.6 194.1,113.6 C191.8,109.6 189.8,106.7 186.9,102.5 L183.7,98 L183.6,98 L157.7,117.2 L134,130.4 L159.7,161.1 L184.5,138.5 Z M167.1,170.2 L208.9,162.4 L212.7,161.7 L214.3,161.4 C213.1,157.2 212,153.3 210.7,149.5 C209.4,145.7 207.8,141.4 206.2,137.6 L205.7,136.5 C203.9,139.5 190.3,143.1 190.3,143.1 L165.5,165.9 L163.4,165.6 L166.9,169.8 C167.003337,169.911609 167.072714,170.050365 167.1,170.2 Z M184.6,277 C180.274042,276.702292 175.967608,276.168161 171.7,275.4 C167.6,274.6 163.3,273.6 158.9,272.4 C154.5,271.2 149.9,269.7 146.2,268.4 C142.5,267.1 138.1,265.3 134.4,263.6 C134.2,264.4 133.9,265.1 133.7,265.8 L130.1,277 C141.987351,281.022793 154.450431,283.083085 167,283.1 C180.338786,283.129917 193.577153,280.793734 206.1,276.2 L197.8,277.1 C193.401651,277.316386 188.994566,277.282999 184.6,277 L184.6,277 Z M257.3,215.1 L254.4,216.2 C250.298789,217.588935 246.126149,218.757274 241.9,219.7 C237.8,220.6 233.6,221.4 229.4,222.1 C225.2,222.8 219.9,223.4 215.6,223.8 C211.3,224.2 206.8,224.5 202.6,224.5 C198.4,224.5 193.4,224.6 189,224.3 C184.6,224 180.2,223.7 175.9,223.1 C171.6,222.5 167.1,221.7 162.7,220.7 L155.3,218.9 L147.1,227 L145,232.7 C144.2,234.9 143.4,237.2 142.7,239.4 C142,241.6 142,241.3 141.7,242.2 C140.6,245.4 139.2,249.4 137.8,253.6 L136.6,257.1 L134.8,262.3 C138.6,264 142.5,265.6 146.7,267.1 C150.9,268.6 154.2,269.6 159.3,271.1 C163.481282,272.281934 167.72012,273.249858 172,274 C176.192834,274.816464 180.435675,275.350996 184.7,275.6 C189.027816,275.883003 193.368343,275.916392 197.7,275.7 C201.930579,275.443944 206.139694,274.909453 210.3,274.1 L212.5,273.6 C241.614848,260.737444 263.997952,236.250255 274.2,206.1 C271.690654,208.006076 269.012928,209.679655 266.2,211.1 C263.317377,212.612958 260.345197,213.948769 257.3,215.1 Z M278.7,158.5 L271.1,167.5 L234.7,177.4 L222.3,179.3 L214.8,187.2 L184.5,201.2 L173.2,213 L158.6,215.7 L156.4,217.8 L163,219.4 C167.290528,220.39153 171.629722,221.159233 176,221.7 C180.4,222.3 184.8,222.7 189.1,223 C193.4,223.3 197.8,223.3 202.6,223.2 C207.4,223.1 211.1,222.8 215.5,222.4 C219.9,222 224.2,221.4 229.2,220.7 C234.2,220 237.5,219.3 241.6,218.3 C245.787803,217.375603 249.926381,216.240832 254,214.9 C257.976538,213.500771 261.852318,211.830176 265.6,209.9 C268.917208,208.126598 272.063858,206.051148 275,203.7 C278.466561,192.803384 280.220776,181.434722 280.2,170 C280.2,169.8 280.1,169.5 280.1,169.3 L280.8,168.6 L305.2,158.3 L278.7,158.3 L278.7,158.5 Z M135.3,256.6 L136.5,253.2 C137.9,249 139.3,244.9 140.4,241.8 C140.7,240.8 141,239.9 141.4,238.9 C141.8,237.9 142.9,234.4 143.7,232.2 L144.8,229.2 L143.6,230.4 C143.6,230.4 133.1,241.2 130.2,245.3 L125.5,249.9 C120.4,253.2 112.5,257.4 111.5,259.6 C110.081708,261.766382 108.439326,263.777462 106.6,265.6 L106.6,265.6 C100.2,272.8 90,283.4 90,283.4 L78.9,293.1 L90,292.2 L110,272.6 L113.4,269.7 C118.373633,272.312353 123.518782,274.584237 128.8,276.5 L132.4,265.4 C133.3,262.5 134.3,259.5 135.3,256.6 Z M104.7,95.3 C104.8,95.4 104.8,95.5 104.8,95.7 L130.9,126.8 L144.7,119.3 L170.5,100.6 L180.8,94.2 L179.2,92.2 C177,89.4 173.9,85.7 170.7,82.3 C167.5,78.9 164.7,75.9 161.4,72.8 C158.295168,69.8295041 154.950483,67.1203095 151.4,64.7 C148.313244,62.6409942 144.989193,60.9621809 141.5,59.7 C124.16386,63.702147 108.022868,71.7555078 94.4,83.2 L104.3,95.1 L104.7,95.3 Z M72.8,180.5 L80.2,172.1 L104.7,141.2 L129.7,127.5 L103.9,96.8 L98.6,101 C94.7,104.2 91.3,107.2 88.3,109.9 C85.3,112.6 82,115.9 79.1,119.1 C76.2,122.3 73.5,125.6 70.8,129.1 C68.1,132.6 65.5,136.5 63.3,140 C61.0687406,143.604757 59.0648385,147.345374 57.3,151.2 C56.2,153.6 55.3,156 54.4,158.4 C53.9954736,162.253372 53.7951935,166.125455 53.7999155,170 C53.8196886,179.513322 55.0290735,188.986836 57.4,198.2 L72.8,180.5 Z M62.2,139.2 C64.3,135.7 66.8,132.1 69.7,128.2 C72.6,124.3 75.2,121.3 78.1,118.2 C81,115.1 84.2,111.8 87.4,108.9 C90.6,106 93.8,103.2 97.8,99.9 L103.1,95.7 L93.3,84.1 C72.7969313,101.682443 59.2495109,126.011057 55.1,152.7 L56,150.7 C57.8534359,146.755478 59.9232528,142.916302 62.2,139.2 Z M65.5,220 C68.1570294,225.36722 71.2332343,230.516519 74.7,235.4 L75,235.1 L83.7,225.6 C84.4,222.2 85.4,218.6 86.6,214.5 C87.8,210.4 89.2,206.6 90.8,202.2 C92.4,197.8 94.1,193.6 95.9,189.7 C97.7,185.8 99.7,181.6 101.8,177.5 C103.9,173.4 106.1,170 108.6,166 C111.1,162 113.4,158.9 116.4,154.9 C119.4,150.9 121.9,147.8 124.7,144.7 C127.5,141.6 131,137.7 133.8,135 L135,133.8 L132.8,131.2 L117.5,139.8 L92.8,171.6 L85.5,180.3 L49.9,222.1 L49.9,222.1 L46,226.7 L40.8,247.2 L58.5,227 L65.5,220 Z M85.1,249.7 L85.1,249.7 L85.6,249.2 L85.9,248.8 L85.9,248.8 C90.4289178,253.513026 95.383275,257.797876 100.7,261.6 C103.9,258.1 106.4,255.1 106.9,254 C108.4,250.9 123.4,244 124.9,240.8 C126.4,237.6 138.8,225 138.8,225 L150.4,213.5 L165.8,170.8 L165.8,170.8 L161.4,165.5 L158.3,165.1 L135.8,186.1 L127,189.3 L112.4,205.8 L83.8,236.6 L83.8,236.6 L82.3,238.3 L82.3,238.3 L81.1,239.6 L79.4,241.7 L55,273 L83.9,250.7 L85.1,249.7 Z" id="Shape" fill="#FFFFFF" fill-rule="nonzero"></path>
            <polygon id="Path" stroke="#FFFFFF" stroke-width="1.5" fill="#FFFFFF" fill-rule="nonzero" points="154.1 329.2 148.2 329 143.5 290 147.8 290 151.7 323 159.2 290.4 163.7 290.4 169.1 323.5 175.1 290.8 179.3 290.8 172.2 329.5 166.3 329.3 161.1 298.1"></polygon>
            <path d="M205.3,292.5 L210.6,315.8 C211.243479,318.053536 210.839572,320.476973 209.5,322.4 C208.2,324.2 205.8,325.5 202.5,326.2 C199.2,326.9 196.5,326.8 194.5,325.8 C192.423767,324.663525 190.985575,322.635306 190.6,320.3 L185.3,297 C184.63901,294.733747 185.083592,292.288544 186.5,290.4 C187.8,288.6 190.1,287.3 193.5,286.6 C196.9,285.9 199.4,285.9 201.4,287 C203.555459,288.045237 205.026737,290.120115 205.3,292.5 Z M206.5,316.7 L201.2,293.4 C200.466667,290.266667 198.166667,289.166667 194.3,290.1 C190.4,290.9 188.7,292.9 189.5,296.1 L194.7,319.4 C195.5,322.5 197.8,323.6 201.7,322.7 C205.6,321.8 207.2,319.8 206.5,316.7 L206.5,316.7 Z" id="Shape" stroke="#FFFFFF" stroke-width="1.5" fill="#FFFFFF" fill-rule="nonzero"></path>
            <path d="M232.3,280.7 L242.6,302.4 C243.690078,304.477946 243.800004,306.932945 242.9,309.1 C242,311.1 240,312.9 236.9,314.3 C233.8,315.7 231.2,316.2 229.1,315.6 C226.822385,315.023402 224.961498,313.385822 224.1,311.2 L213.8,289.5 C212.634284,287.449715 212.486505,284.974417 213.4,282.8 C214.3,280.8 216.3,279 219.4,277.6 C222.5,276.2 225.1,275.7 227.3,276.3 C229.577615,276.876598 231.438502,278.514178 232.3,280.7 L232.3,280.7 Z M238.8,304.2 L228.5,282.5 C227.1,279.7 224.6,279.1 221,280.8 C217.4,282.5 216.2,284.8 217.6,287.7 L227.9,309.4 C229.2,312.2 231.7,312.8 235.4,311.1 C239.1,309.4 240.1,307.1 238.8,304.2 Z" id="Shape" stroke="#FFFFFF" stroke-width="1.5" fill="#FFFFFF" fill-rule="nonzero"></path>
            <polygon id="Path" stroke="#FFFFFF" stroke-width="1.5" fill="#FFFFFF" fill-rule="nonzero" points="263.1 297.7 259.8 300.2 236.1 269.4 239.4 266.8 249.5 279.9 247.8 260.4 251.5 257.5 253.2 277.3 275.8 288 272.1 290.8 253.7 282.1 254 285.8"></polygon>
            <polygon id="Path" stroke="#FFFFFF" stroke-width="1.5" fill="#FFFFFF" fill-rule="nonzero" points="286.9 271.1 289.5 273.6 282.5 281.1 279.9 278.6 281.9 276.4 258.7 254.8 256.7 257 254 254.5 261 247 263.7 249.5 261.6 251.7 284.8 273.3"></polygon>
            <polygon id="Path" stroke="#FFFFFF" stroke-width="1.5" fill="#FFFFFF" fill-rule="nonzero" points="308.4 247.6 298.6 262.4 266.2 240.8 275.7 226.5 278.7 228.5 271.5 239.3 283 246.9 288.8 238.1 291.8 240.1 285.9 248.9 297.9 256.9 305.4 245.6"></polygon>
            <path d="M315.1,214.3 C320.3,216.4 321.6,220.5 319.1,226.9 C316.6,233.3 312.7,235.3 307.5,233.2 L302.8,231.3 L304.4,227.4 L309.3,229.4 C310.491709,229.943046 311.873771,229.86834 313,229.2 C314.321375,228.31506 315.307389,227.012113 315.8,225.5 C316.483276,224.067673 316.65958,222.445681 316.3,220.9 C315.926888,219.685473 314.998967,218.720435 313.8,218.3 C312.793292,217.834022 311.707556,217.562588 310.6,217.5 C309.517723,217.516143 308.454936,217.790411 307.5,218.3 L294,224.3 C292.652736,224.931428 291.187631,225.27215 289.7,225.3 C288.181356,225.263154 286.685391,224.923162 285.3,224.3 C283.078625,223.584923 281.308913,221.88895 280.5,219.7 C279.8,217.6 280,215 281.3,211.8 C283.7,205.8 287.5,203.9 292.7,205.9 L297.4,207.8 L295.8,211.8 L290.9,209.8 C289.729724,209.24225 288.370276,209.24225 287.2,209.8 C285.929972,210.627631 284.978141,211.861485 284.5,213.3 C283.848598,214.672687 283.706811,216.232351 284.1,217.7 C284.473112,218.914527 285.401033,219.879565 286.6,220.3 C287.614425,220.743737 288.696102,221.014156 289.8,221.1 C290.852263,221.096551 291.88574,220.820958 292.8,220.3 L306.4,214.1 C307.770168,213.552487 309.225268,213.247931 310.7,213.2 C312.216415,213.326834 313.7023,213.698306 315.1,214.3 L315.1,214.3 Z" id="Path" stroke="#FFFFFF" stroke-width="1.5" fill="#FFFFFF" fill-rule="nonzero"></path>
            <polygon id="Path" stroke="#FFFFFF" stroke-width="1.5" fill="#FFFFFF" fill-rule="nonzero" points="60.2 63.6 75 78 77.7 75.2 79.2 76.7 72.1 84 70.6 82.5 73.3 79.8 60.2 67 58.9 72.3 56.8 71.8 58.5 65.4"></polygon>
            <path d="M81.5,51.1 L90.1,62.1 C92.1,64.7 91.6,67.2 88.4,69.7 C85.2,72.2 82.7,72 80.7,69.5 L79.3,67.7 L81.3,66.2 L82.7,68.1 C83.8,69.5 85.3,69.4 87.1,68 C88.9,66.6 89.3,65.2 88.2,63.8 L84.4,58.8 C84.1409763,60.1784853 83.3036387,61.3798827 82.1,62.1 C80.9853379,63.1334153 79.5199971,63.7052556 78,63.7 C76.6328029,63.6300785 75.376045,62.9277727 74.6,61.8 L72,58.5 C71.115218,57.4465892 70.7483453,56.0524731 71,54.7 C71.2,53.4 72.2,52.2 73.7,50.9 C74.8814475,49.8333613 76.408567,49.2296164 78,49.2 C79.3986717,49.2545239 80.6923271,49.956794 81.5,51.1 L81.5,51.1 Z M82.1,55.9 L79.5,52.6 C78.4,51.2 76.9,51.1 75,52.6 C73.1,54.1 72.8,55.5 74,57 L76.6,60.3 C77.7,61.7 79.2,61.8 81.1,60.3 C83,58.8 83.3,57.4 82.1,55.9 Z" id="Shape" stroke="#FFFFFF" stroke-width="1.5" fill="#FFFFFF" fill-rule="nonzero"></path>
            <path d="M98.2,40.7 L105.3,52.8 C106.9,55.6 106,58 102.6,60 C99.2,62 96.6,61.6 95,58.8 L93.8,56.9 L96,55.6 L97.2,57.7 C98.1,59.2 99.5,59.4 101.5,58.2 C103.5,57 104.1,55.7 103.2,54.2 L100,48.8 C99.8,49.9 98.9,50.9 97.3,51.7 C96.0709352,52.5448408 94.5854039,52.9339085 93.1,52.8 C91.7476642,52.5299965 90.6001396,51.6415904 90,50.4 L87.8,46.8 C87.0581411,45.6403145 86.8746807,44.2093237 87.3,42.9 C87.9319535,41.4245102 89.0654826,40.2201355 90.5,39.5 C91.8058642,38.5751387 93.4147353,38.1818591 95,38.4 C96.3576867,38.6478071 97.5323716,39.4921119 98.2,40.7 L98.2,40.7 L98.2,40.7 Z M98.2,45.6 L96.1,42 C95.1,40.4 93.6,40.1 91.6,41.3 C89.6,42.5 89,43.9 90,45.5 L92.1,49.2 C93,50.8 94.5,51 96.5,49.8 C98.5,48.6 99.1,47.2 98.2,45.6 Z" id="Shape" stroke="#FFFFFF" stroke-width="1.5" fill="#FFFFFF" fill-rule="nonzero"></path>
            <path d="M106.9,34.1 L109.6,40.5 L112.8,39.2 C114.170294,38.5398952 115.733135,38.3978187 117.2,38.8 C118.447456,39.3724533 119.417996,40.414885 119.9,41.7 L121.5,45.6 C122.8,48.6 121.6,50.9 117.9,52.4 C114.2,53.9 111.8,53.2 110.5,50.2 L109.4,47.4 L111.7,46.5 L112.9,49.3 C113.110003,50.0239593 113.676041,50.589997 114.4,50.8 C115.309114,50.9872939 116.254173,50.8822874 117.1,50.5 C117.997798,50.1860079 118.769681,49.5895528 119.3,48.8 C119.595267,48.1311366 119.595267,47.3688634 119.3,46.7 L117.6,42.6 C117.272853,41.8668032 116.665468,41.2953319 115.913716,41.0134249 C115.161964,40.731518 114.328582,40.7627016 113.6,41.1 L108.1,43.4 L103.8,33.1 L114.1,28.8 L115,30.7 L106.9,34.1 Z" id="Path" stroke="#FFFFFF" stroke-width="1.5" fill="#FFFFFF" fill-rule="nonzero"></path>
        </g>
    </g>
</svg>